<?xml version="1.0" encoding="UTF-8"?><svg id="Layer_1" xmlns="http://www.w3.org/2000/svg" viewBox="0 0 12.89 8.69"><defs><style>.cls-1{fill:#faaf40;stroke-width:0px;}</style></defs><polygon class="cls-1" points=".55 .76 12.89 .76 12.89 0 0 0 .55 .76"/><polygon class="cls-1" points="1.53 2.09 12.89 2.09 12.89 1.28 .94 1.28 1.53 2.09"/><polygon class="cls-1" points="2.5 3.42 12.89 3.42 12.89 2.61 1.91 2.61 2.5 3.42"/><polygon class="cls-1" points="3.18 4.35 2.89 4.75 12.89 4.75 12.89 3.94 2.89 3.94 3.18 4.35"/><polygon class="cls-1" points="1.91 6.08 12.89 6.08 12.89 5.27 2.5 5.27 1.91 6.08"/><polygon class="cls-1" points=".94 7.41 12.89 7.41 12.89 6.61 1.53 6.61 .94 7.41"/><polygon class="cls-1" points="0 8.69 12.89 8.69 12.89 7.94 .55 7.94 0 8.69"/></svg>